<svg id="visual" viewBox="0 0 900 600" width="900" height="600" xmlns="http://www.w3.org/2000/svg" xmlns:xlink="http://www.w3.org/1999/xlink" version="1.1"><rect width="900" height="600" fill="#FFFFFF"></rect><g><g transform="translate(850 347)"><path d="M0 -13.1L11.4 -6.6L11.4 6.6L0 13.1L-11.4 6.6L-11.4 -6.6Z" fill="none" stroke="#CCCCCC" stroke-width="1"></path></g><g transform="translate(679 446)"><path d="M0 -10L8.7 -5L8.7 5L0 10L-8.7 5L-8.7 -5Z" stroke="#CCCCCC" fill="none" stroke-width="1"></path></g><g transform="translate(733 526)"><path d="M0 -5L4.3 -2.5L4.3 2.5L0 5L-4.3 2.5L-4.3 -2.5Z" stroke="#CCCCCC" fill="none" stroke-width="1"></path></g><g transform="translate(704 318)"><path d="M0 -11L9.5 -5.5L9.5 5.5L0 11L-9.5 5.5L-9.5 -5.5Z" stroke="#CCCCCC" fill="none" stroke-width="1"></path></g><g transform="translate(737 418)"><path d="M0 -8L6.9 -4L6.9 4L0 8L-6.9 4L-6.9 -4Z" stroke="#CCCCCC" fill="none" stroke-width="1"></path></g><g transform="translate(355 291)"><path d="M0 -4L3.5 -2L3.5 2L0 4L-3.5 2L-3.5 -2Z" stroke="#CCCCCC" fill="none" stroke-width="1"></path></g><g transform="translate(90 429)"><path d="M0 -11L9.5 -5.5L9.5 5.5L0 11L-9.5 5.5L-9.5 -5.5Z" stroke="#CCCCCC" fill="none" stroke-width="1"></path></g><g transform="translate(156 567)"><path d="M0 -12L10.4 -6L10.4 6L0 12L-10.4 6L-10.4 -6Z" stroke="#CCCCCC" fill="none" stroke-width="1"></path></g><g transform="translate(418 144)"><path d="M0 -1L0.9 -0.5L0.9 0.5L0 1L-0.9 0.5L-0.9 -0.5Z" stroke="#CCCCCC" fill="none" stroke-width="1"></path></g><g transform="translate(669 29)"><path d="M0 -6L5.2 -3L5.2 3L0 6L-5.2 3L-5.2 -3Z" stroke="#CCCCCC" fill="none" stroke-width="1"></path></g><g transform="translate(305 227)"><path d="M0 -2L1.7 -1L1.7 1L0 2L-1.7 1L-1.7 -1Z" stroke="#CCCCCC" fill="none" stroke-width="1"></path></g><g transform="translate(224 506)"><path d="M0 -9L7.8 -4.5L7.8 4.5L0 9L-7.8 4.5L-7.8 -4.5Z" stroke="#CCCCCC" fill="none" stroke-width="1"></path></g><g transform="translate(629 204)"><path d="M0 -1L0.9 -0.5L0.9 0.5L0 1L-0.9 0.5L-0.9 -0.5Z" stroke="#CCCCCC" fill="none" stroke-width="1"></path></g><g transform="translate(505 251)"><path d="M0 -1L0.9 -0.5L0.9 0.5L0 1L-0.9 0.5L-0.9 -0.5Z" stroke="#CCCCCC" fill="none" stroke-width="1"></path></g><g transform="translate(883 46)"><path d="M0 -10L8.7 -5L8.7 5L0 10L-8.7 5L-8.7 -5Z" stroke="#CCCCCC" fill="none" stroke-width="1"></path></g><g transform="translate(777 135)"><path d="M0 -12L10.4 -6L10.4 6L0 12L-10.4 6L-10.4 -6Z" stroke="#CCCCCC" fill="none" stroke-width="1"></path></g><g transform="translate(509 284)"><path d="M0 -3L2.6 -1.5L2.6 1.5L0 3L-2.6 1.5L-2.6 -1.5Z" stroke="#CCCCCC" fill="none" stroke-width="1"></path></g><g transform="translate(326 268)"><path d="M0 -8L6.9 -4L6.9 4L0 8L-6.9 4L-6.9 -4Z" stroke="#CCCCCC" fill="none" stroke-width="1"></path></g><g transform="translate(727 56)"><path d="M0 -12L10.4 -6L10.4 6L0 12L-10.4 6L-10.4 -6Z" stroke="#CCCCCC" fill="none" stroke-width="1"></path></g><g transform="translate(90 169)"><path d="M0 -5L4.3 -2.5L4.3 2.5L0 5L-4.3 2.5L-4.3 -2.5Z" stroke="#CCCCCC" fill="none" stroke-width="1"></path></g><g transform="translate(797 394)"><path d="M0 -9L7.8 -4.5L7.8 4.5L0 9L-7.8 4.5L-7.8 -4.5Z" stroke="#CCCCCC" fill="none" stroke-width="1"></path></g><g transform="translate(36 439)"><path d="M0 -7L6.1 -3.5L6.1 3.5L0 7L-6.1 3.5L-6.1 -3.5Z" stroke="#CCCCCC" fill="none" stroke-width="1"></path></g><g transform="translate(587 300)"><path d="M0 -10L8.7 -5L8.7 5L0 10L-8.7 5L-8.7 -5Z" stroke="#CCCCCC" fill="none" stroke-width="1"></path></g><g transform="translate(728 273)"><path d="M0 -4L3.5 -2L3.5 2L0 4L-3.5 2L-3.5 -2Z" stroke="#CCCCCC" fill="none" stroke-width="1"></path></g><g transform="translate(64 28)"><path d="M0 -10L8.7 -5L8.7 5L0 10L-8.7 5L-8.7 -5Z" stroke="#CCCCCC" fill="none" stroke-width="1"></path></g><g transform="translate(455 389)"><path d="M0 -5L4.3 -2.5L4.3 2.5L0 5L-4.3 2.5L-4.3 -2.5Z" stroke="#CCCCCC" fill="none" stroke-width="1"></path></g><g transform="translate(512 541)"><path d="M0 -11L9.5 -5.5L9.5 5.5L0 11L-9.5 5.5L-9.5 -5.5Z" stroke="#CCCCCC" fill="none" stroke-width="1"></path></g><g transform="translate(19 507)"><path d="M0 -7L6.1 -3.5L6.1 3.5L0 7L-6.1 3.5L-6.1 -3.5Z" stroke="#CCCCCC" fill="none" stroke-width="1"></path></g><g transform="translate(793 27)"><path d="M0 -1L0.9 -0.5L0.9 0.5L0 1L-0.9 0.5L-0.9 -0.5Z" stroke="#CCCCCC" fill="none" stroke-width="1"></path></g><g transform="translate(702 260)"><path d="M0 -9L7.8 -4.5L7.8 4.5L0 9L-7.8 4.5L-7.8 -4.5Z" stroke="#CCCCCC" fill="none" stroke-width="1"></path></g><g transform="translate(377 514)"><path d="M0 -5L4.3 -2.5L4.3 2.5L0 5L-4.3 2.5L-4.3 -2.5Z" stroke="#CCCCCC" fill="none" stroke-width="1"></path></g><g transform="translate(42 376)"><path d="M0 -4L3.5 -2L3.5 2L0 4L-3.5 2L-3.5 -2Z" stroke="#CCCCCC" fill="none" stroke-width="1"></path></g><g transform="translate(771 409)"><path d="M0 -1L0.9 -0.5L0.9 0.5L0 1L-0.9 0.5L-0.9 -0.5Z" stroke="#CCCCCC" fill="none" stroke-width="1"></path></g><g transform="translate(61 515)"><path d="M0 -7L6.1 -3.5L6.1 3.5L0 7L-6.1 3.5L-6.1 -3.5Z" stroke="#CCCCCC" fill="none" stroke-width="1"></path></g><g transform="translate(484 419)"><path d="M0 -11L9.5 -5.5L9.5 5.5L0 11L-9.5 5.5L-9.5 -5.5Z" stroke="#CCCCCC" fill="none" stroke-width="1"></path></g><g transform="translate(387 291)"><path d="M0 -12L10.4 -6L10.4 6L0 12L-10.4 6L-10.4 -6Z" stroke="#CCCCCC" fill="none" stroke-width="1"></path></g><g transform="translate(848 569)"><path d="M0 -2L1.7 -1L1.7 1L0 2L-1.7 1L-1.7 -1Z" stroke="#CCCCCC" fill="none" stroke-width="1"></path></g><g transform="translate(567 117)"><path d="M0 -8L6.9 -4L6.9 4L0 8L-6.9 4L-6.9 -4Z" stroke="#CCCCCC" fill="none" stroke-width="1"></path></g><g transform="translate(687 145)"><path d="M0 -4L3.5 -2L3.5 2L0 4L-3.5 2L-3.5 -2Z" stroke="#CCCCCC" fill="none" stroke-width="1"></path></g><g transform="translate(514 207)"><path d="M0 -9L7.8 -4.5L7.8 4.5L0 9L-7.8 4.5L-7.8 -4.5Z" stroke="#CCCCCC" fill="none" stroke-width="1"></path></g><g transform="translate(712 569)"><path d="M0 -1L0.9 -0.5L0.9 0.5L0 1L-0.9 0.5L-0.9 -0.5Z" stroke="#CCCCCC" fill="none" stroke-width="1"></path></g><g transform="translate(594 235)"><path d="M0 -3L2.6 -1.5L2.6 1.5L0 3L-2.6 1.5L-2.6 -1.5Z" stroke="#CCCCCC" fill="none" stroke-width="1"></path></g><g transform="translate(710 356)"><path d="M0 -3L2.6 -1.5L2.6 1.5L0 3L-2.6 1.5L-2.6 -1.5Z" stroke="#CCCCCC" fill="none" stroke-width="1"></path></g><g transform="translate(458 117)"><path d="M0 -4L3.5 -2L3.5 2L0 4L-3.5 2L-3.5 -2Z" stroke="#CCCCCC" fill="none" stroke-width="1"></path></g><g transform="translate(39 234)"><path d="M0 -3L2.6 -1.5L2.6 1.5L0 3L-2.6 1.5L-2.6 -1.5Z" stroke="#CCCCCC" fill="none" stroke-width="1"></path></g><g transform="translate(115 527)"><path d="M0 -8L6.9 -4L6.9 4L0 8L-6.9 4L-6.9 -4Z" stroke="#CCCCCC" fill="none" stroke-width="1"></path></g><g transform="translate(212 553)"><path d="M0 -4L3.5 -2L3.5 2L0 4L-3.5 2L-3.5 -2Z" stroke="#CCCCCC" fill="none" stroke-width="1"></path></g><g transform="translate(767 561)"><path d="M0 -1L0.9 -0.5L0.9 0.5L0 1L-0.9 0.5L-0.9 -0.5Z" stroke="#CCCCCC" fill="none" stroke-width="1"></path></g><g transform="translate(784 341)"><path d="M0 -7L6.1 -3.5L6.1 3.5L0 7L-6.1 3.5L-6.1 -3.5Z" stroke="#CCCCCC" fill="none" stroke-width="1"></path></g><g transform="translate(194 20)"><path d="M0 -7L6.1 -3.5L6.1 3.5L0 7L-6.1 3.5L-6.1 -3.5Z" stroke="#CCCCCC" fill="none" stroke-width="1"></path></g><g transform="translate(230 336)"><path d="M0 -10L8.7 -5L8.7 5L0 10L-8.7 5L-8.7 -5Z" stroke="#CCCCCC" fill="none" stroke-width="1"></path></g><g transform="translate(574 579)"><path d="M0 -4L3.5 -2L3.5 2L0 4L-3.5 2L-3.5 -2Z" stroke="#CCCCCC" fill="none" stroke-width="1"></path></g><g transform="translate(347 50)"><path d="M0 -12L10.4 -6L10.4 6L0 12L-10.4 6L-10.4 -6Z" stroke="#CCCCCC" fill="none" stroke-width="1"></path></g><g transform="translate(887 490)"><path d="M0 -12L10.4 -6L10.4 6L0 12L-10.4 6L-10.4 -6Z" stroke="#CCCCCC" fill="none" stroke-width="1"></path></g><g transform="translate(71 190)"><path d="M0 -7L6.1 -3.5L6.1 3.5L0 7L-6.1 3.5L-6.1 -3.5Z" stroke="#CCCCCC" fill="none" stroke-width="1"></path></g><g transform="translate(32 68)"><path d="M0 -12L10.4 -6L10.4 6L0 12L-10.4 6L-10.4 -6Z" stroke="#CCCCCC" fill="none" stroke-width="1"></path></g><g transform="translate(864 532)"><path d="M0 -2L1.7 -1L1.7 1L0 2L-1.7 1L-1.7 -1Z" stroke="#CCCCCC" fill="none" stroke-width="1"></path></g><g transform="translate(787 481)"><path d="M0 -8L6.9 -4L6.9 4L0 8L-6.9 4L-6.9 -4Z" stroke="#CCCCCC" fill="none" stroke-width="1"></path></g><g transform="translate(212 253)"><path d="M0 -12L10.4 -6L10.4 6L0 12L-10.4 6L-10.4 -6Z" stroke="#CCCCCC" fill="none" stroke-width="1"></path></g><g transform="translate(857 506)"><path d="M0 -4L3.5 -2L3.5 2L0 4L-3.5 2L-3.5 -2Z" stroke="#CCCCCC" fill="none" stroke-width="1"></path></g><g transform="translate(409 195)"><path d="M0 -1L0.9 -0.5L0.9 0.5L0 1L-0.9 0.5L-0.9 -0.5Z" stroke="#CCCCCC" fill="none" stroke-width="1"></path></g><g transform="translate(849 247)"><path d="M0 -7L6.1 -3.5L6.1 3.5L0 7L-6.1 3.5L-6.1 -3.5Z" stroke="#CCCCCC" fill="none" stroke-width="1"></path></g><g transform="translate(856 86)"><path d="M0 -8L6.9 -4L6.9 4L0 8L-6.9 4L-6.9 -4Z" stroke="#CCCCCC" fill="none" stroke-width="1"></path></g><g transform="translate(766 280)"><path d="M0 -4L3.5 -2L3.5 2L0 4L-3.5 2L-3.5 -2Z" stroke="#CCCCCC" fill="none" stroke-width="1"></path></g><g transform="translate(107 327)"><path d="M0 -1L0.9 -0.5L0.9 0.5L0 1L-0.9 0.5L-0.9 -0.5Z" stroke="#CCCCCC" fill="none" stroke-width="1"></path></g><g transform="translate(176 299)"><path d="M0 -7L6.1 -3.5L6.1 3.5L0 7L-6.1 3.5L-6.1 -3.5Z" stroke="#CCCCCC" fill="none" stroke-width="1"></path></g><g transform="translate(144 128)"><path d="M0 -3L2.6 -1.5L2.6 1.5L0 3L-2.6 1.5L-2.6 -1.5Z" stroke="#CCCCCC" fill="none" stroke-width="1"></path></g><g transform="translate(117 444)"><path d="M0 -9L7.8 -4.5L7.8 4.5L0 9L-7.8 4.5L-7.8 -4.5Z" stroke="#CCCCCC" fill="none" stroke-width="1"></path></g><g transform="translate(427 558)"><path d="M0 -11L9.5 -5.5L9.5 5.5L0 11L-9.5 5.5L-9.5 -5.5Z" stroke="#CCCCCC" fill="none" stroke-width="1"></path></g><g transform="translate(819 523)"><path d="M0 -5L4.3 -2.5L4.3 2.5L0 5L-4.3 2.5L-4.3 -2.5Z" stroke="#CCCCCC" fill="none" stroke-width="1"></path></g><g transform="translate(740 581)"><path d="M0 -8L6.9 -4L6.9 4L0 8L-6.9 4L-6.9 -4Z" stroke="#CCCCCC" fill="none" stroke-width="1"></path></g><g transform="translate(772 505)"><path d="M0 -2L1.7 -1L1.7 1L0 2L-1.7 1L-1.7 -1Z" stroke="#CCCCCC" fill="none" stroke-width="1"></path></g><g transform="translate(293 364)"><path d="M0 -11L9.5 -5.5L9.5 5.5L0 11L-9.5 5.5L-9.5 -5.5Z" stroke="#CCCCCC" fill="none" stroke-width="1"></path></g><g transform="translate(318 509)"><path d="M0 -3L2.6 -1.5L2.6 1.5L0 3L-2.6 1.5L-2.6 -1.5Z" stroke="#CCCCCC" fill="none" stroke-width="1"></path></g><g transform="translate(289 443)"><path d="M0 -2L1.7 -1L1.7 1L0 2L-1.7 1L-1.7 -1Z" stroke="#CCCCCC" fill="none" stroke-width="1"></path></g><g transform="translate(85 260)"><path d="M0 -7L6.1 -3.5L6.1 3.5L0 7L-6.1 3.5L-6.1 -3.5Z" stroke="#CCCCCC" fill="none" stroke-width="1"></path></g><g transform="translate(165 52)"><path d="M0 -3L2.6 -1.5L2.6 1.5L0 3L-2.6 1.5L-2.6 -1.5Z" stroke="#CCCCCC" fill="none" stroke-width="1"></path></g><g transform="translate(828 454)"><path d="M0 -11L9.5 -5.5L9.5 5.5L0 11L-9.5 5.5L-9.5 -5.5Z" stroke="#CCCCCC" fill="none" stroke-width="1"></path></g><g transform="translate(861 27)"><path d="M0 -7L6.1 -3.5L6.1 3.5L0 7L-6.1 3.5L-6.1 -3.5Z" stroke="#CCCCCC" fill="none" stroke-width="1"></path></g><g transform="translate(513 371)"><path d="M0 -5L4.3 -2.5L4.3 2.5L0 5L-4.3 2.5L-4.3 -2.5Z" stroke="#CCCCCC" fill="none" stroke-width="1"></path></g><g transform="translate(330 416)"><path d="M0 -2L1.7 -1L1.7 1L0 2L-1.7 1L-1.7 -1Z" stroke="#CCCCCC" fill="none" stroke-width="1"></path></g><g transform="translate(66 569)"><path d="M0 -5L4.3 -2.5L4.3 2.5L0 5L-4.3 2.5L-4.3 -2.5Z" stroke="#CCCCCC" fill="none" stroke-width="1"></path></g><g transform="translate(751 249)"><path d="M0 -10L8.7 -5L8.7 5L0 10L-8.7 5L-8.7 -5Z" stroke="#CCCCCC" fill="none" stroke-width="1"></path></g><g transform="translate(561 509)"><path d="M0 -3L2.6 -1.5L2.6 1.5L0 3L-2.6 1.5L-2.6 -1.5Z" stroke="#CCCCCC" fill="none" stroke-width="1"></path></g><g transform="translate(300 165)"><path d="M0 -4L3.5 -2L3.5 2L0 4L-3.5 2L-3.5 -2Z" stroke="#CCCCCC" fill="none" stroke-width="1"></path></g><g transform="translate(310 303)"><path d="M0 -5L4.3 -2.5L4.3 2.5L0 5L-4.3 2.5L-4.3 -2.5Z" stroke="#CCCCCC" fill="none" stroke-width="1"></path></g><g transform="translate(756 67)"><path d="M0 -8L6.9 -4L6.9 4L0 8L-6.9 4L-6.9 -4Z" stroke="#CCCCCC" fill="none" stroke-width="1"></path></g><g transform="translate(669 123)"><path d="M0 -3L2.6 -1.5L2.6 1.5L0 3L-2.6 1.5L-2.6 -1.5Z" stroke="#CCCCCC" fill="none" stroke-width="1"></path></g><g transform="translate(122 288)"><path d="M0 -4L3.5 -2L3.5 2L0 4L-3.5 2L-3.5 -2Z" stroke="#CCCCCC" fill="none" stroke-width="1"></path></g><g transform="translate(625 256)"><path d="M0 -3L2.6 -1.5L2.6 1.5L0 3L-2.6 1.5L-2.6 -1.5Z" stroke="#CCCCCC" fill="none" stroke-width="1"></path></g><g transform="translate(136 64)"><path d="M0 -12L10.4 -6L10.4 6L0 12L-10.4 6L-10.4 -6Z" stroke="#CCCCCC" fill="none" stroke-width="1"></path></g><g transform="translate(580 212)"><path d="M0 -12L10.4 -6L10.4 6L0 12L-10.4 6L-10.4 -6Z" stroke="#CCCCCC" fill="none" stroke-width="1"></path></g><g transform="translate(386 546)"><path d="M0 -8L6.9 -4L6.9 4L0 8L-6.9 4L-6.9 -4Z" stroke="#CCCCCC" fill="none" stroke-width="1"></path></g><g transform="translate(85 484)"><path d="M0 -2L1.7 -1L1.7 1L0 2L-1.7 1L-1.7 -1Z" stroke="#CCCCCC" fill="none" stroke-width="1"></path></g><g transform="translate(487 55)"><path d="M0 -5L4.3 -2.5L4.3 2.5L0 5L-4.3 2.5L-4.3 -2.5Z" stroke="#CCCCCC" fill="none" stroke-width="1"></path></g><g transform="translate(655 277)"><path d="M0 -4L3.5 -2L3.5 2L0 4L-3.5 2L-3.5 -2Z" stroke="#CCCCCC" fill="none" stroke-width="1"></path></g><g transform="translate(51 265)"><path d="M0 -1L0.9 -0.5L0.9 0.5L0 1L-0.9 0.5L-0.9 -0.5Z" stroke="#CCCCCC" fill="none" stroke-width="1"></path></g><g transform="translate(534 300)"><path d="M0 -1L0.9 -0.5L0.9 0.5L0 1L-0.9 0.5L-0.9 -0.5Z" stroke="#CCCCCC" fill="none" stroke-width="1"></path></g><g transform="translate(351 194)"><path d="M0 -6L5.2 -3L5.2 3L0 6L-5.2 3L-5.2 -3Z" stroke="#CCCCCC" fill="none" stroke-width="1"></path></g><g transform="translate(512 15)"><path d="M0 -5L4.3 -2.5L4.3 2.5L0 5L-4.3 2.5L-4.3 -2.5Z" stroke="#CCCCCC" fill="none" stroke-width="1"></path></g><g transform="translate(45 95)"><path d="M0 -8L6.9 -4L6.9 4L0 8L-6.9 4L-6.9 -4Z" stroke="#CCCCCC" fill="none" stroke-width="1"></path></g><g transform="translate(232 20)"><path d="M0 -5L4.3 -2.5L4.3 2.5L0 5L-4.3 2.5L-4.3 -2.5Z" stroke="#CCCCCC" fill="none" stroke-width="1"></path></g><g transform="translate(289 560)"><path d="M0 -9L7.8 -4.5L7.8 4.5L0 9L-7.8 4.5L-7.8 -4.5Z" stroke="#CCCCCC" fill="none" stroke-width="1"></path></g><g transform="translate(866 398)"><path d="M0 -9L7.8 -4.5L7.8 4.5L0 9L-7.8 4.5L-7.8 -4.5Z" stroke="#CCCCCC" fill="none" stroke-width="1"></path></g><g transform="translate(790 307)"><path d="M0 -8L6.9 -4L6.9 4L0 8L-6.9 4L-6.9 -4Z" stroke="#CCCCCC" fill="none" stroke-width="1"></path></g><g transform="translate(367 98)"><path d="M0 -1L0.9 -0.5L0.9 0.5L0 1L-0.9 0.5L-0.9 -0.5Z" stroke="#CCCCCC" fill="none" stroke-width="1"></path></g><g transform="translate(648 436)"><path d="M0 -9L7.8 -4.5L7.8 4.5L0 9L-7.8 4.5L-7.8 -4.5Z" stroke="#CCCCCC" fill="none" stroke-width="1"></path></g><g transform="translate(54 150)"><path d="M0 -9L7.8 -4.5L7.8 4.5L0 9L-7.8 4.5L-7.8 -4.5Z" stroke="#CCCCCC" fill="none" stroke-width="1"></path></g><g transform="translate(505 438)"><path d="M0 -3L2.6 -1.5L2.6 1.5L0 3L-2.6 1.5L-2.6 -1.5Z" stroke="#CCCCCC" fill="none" stroke-width="1"></path></g><g transform="translate(363 433)"><path d="M0 -3L2.6 -1.5L2.6 1.5L0 3L-2.6 1.5L-2.6 -1.5Z" stroke="#CCCCCC" fill="none" stroke-width="1"></path></g><g transform="translate(146 424)"><path d="M0 -5L4.3 -2.5L4.3 2.5L0 5L-4.3 2.5L-4.3 -2.5Z" stroke="#CCCCCC" fill="none" stroke-width="1"></path></g><g transform="translate(354 221)"><path d="M0 -4L3.5 -2L3.5 2L0 4L-3.5 2L-3.5 -2Z" stroke="#CCCCCC" fill="none" stroke-width="1"></path></g><g transform="translate(582 422)"><path d="M0 -3L2.6 -1.5L2.6 1.5L0 3L-2.6 1.5L-2.6 -1.5Z" stroke="#CCCCCC" fill="none" stroke-width="1"></path></g><g transform="translate(494 110)"><path d="M0 -10L8.7 -5L8.7 5L0 10L-8.7 5L-8.7 -5Z" stroke="#CCCCCC" fill="none" stroke-width="1"></path></g><g transform="translate(681 299)"><path d="M0 -2L1.7 -1L1.7 1L0 2L-1.7 1L-1.7 -1Z" stroke="#CCCCCC" fill="none" stroke-width="1"></path></g><g transform="translate(195 87)"><path d="M0 -5L4.3 -2.5L4.3 2.5L0 5L-4.3 2.5L-4.3 -2.5Z" stroke="#CCCCCC" fill="none" stroke-width="1"></path></g><g transform="translate(884 143)"><path d="M0 -2L1.7 -1L1.7 1L0 2L-1.7 1L-1.7 -1Z" stroke="#CCCCCC" fill="none" stroke-width="1"></path></g><g transform="translate(330 163)"><path d="M0 -1L0.9 -0.5L0.9 0.5L0 1L-0.9 0.5L-0.9 -0.5Z" stroke="#CCCCCC" fill="none" stroke-width="1"></path></g><g transform="translate(406 413)"><path d="M0 -4L3.5 -2L3.5 2L0 4L-3.5 2L-3.5 -2Z" stroke="#CCCCCC" fill="none" stroke-width="1"></path></g><g transform="translate(234 270)"><path d="M0 -9L7.8 -4.5L7.8 4.5L0 9L-7.8 4.5L-7.8 -4.5Z" stroke="#CCCCCC" fill="none" stroke-width="1"></path></g><g transform="translate(640 157)"><path d="M0 -1L0.9 -0.5L0.9 0.5L0 1L-0.9 0.5L-0.9 -0.5Z" stroke="#CCCCCC" fill="none" stroke-width="1"></path></g><g transform="translate(594 91)"><path d="M0 -1L0.9 -0.5L0.9 0.5L0 1L-0.9 0.5L-0.9 -0.5Z" stroke="#CCCCCC" fill="none" stroke-width="1"></path></g><g transform="translate(739 121)"><path d="M0 -8L6.9 -4L6.9 4L0 8L-6.9 4L-6.9 -4Z" stroke="#CCCCCC" fill="none" stroke-width="1"></path></g><g transform="translate(405 451)"><path d="M0 -11L9.5 -5.5L9.5 5.5L0 11L-9.5 5.5L-9.5 -5.5Z" stroke="#CCCCCC" fill="none" stroke-width="1"></path></g><g transform="translate(479 527)"><path d="M0 -8L6.9 -4L6.9 4L0 8L-6.9 4L-6.9 -4Z" stroke="#CCCCCC" fill="none" stroke-width="1"></path></g><g transform="translate(654 395)"><path d="M0 -8L6.9 -4L6.9 4L0 8L-6.9 4L-6.9 -4Z" stroke="#CCCCCC" fill="none" stroke-width="1"></path></g><g transform="translate(492 558)"><path d="M0 -9L7.8 -4.5L7.8 4.5L0 9L-7.8 4.5L-7.8 -4.5Z" stroke="#CCCCCC" fill="none" stroke-width="1"></path></g><g transform="translate(414 223)"><path d="M0 -9L7.8 -4.5L7.8 4.5L0 9L-7.8 4.5L-7.8 -4.5Z" stroke="#CCCCCC" fill="none" stroke-width="1"></path></g><g transform="translate(588 170)"><path d="M0 -11L9.5 -5.5L9.5 5.5L0 11L-9.5 5.5L-9.5 -5.5Z" stroke="#CCCCCC" fill="none" stroke-width="1"></path></g><g transform="translate(834 147)"><path d="M0 -3L2.6 -1.5L2.6 1.5L0 3L-2.6 1.5L-2.6 -1.5Z" stroke="#CCCCCC" fill="none" stroke-width="1"></path></g><g transform="translate(466 179)"><path d="M0 -1L0.9 -0.5L0.9 0.5L0 1L-0.9 0.5L-0.9 -0.5Z" stroke="#CCCCCC" fill="none" stroke-width="1"></path></g><g transform="translate(230 192)"><path d="M0 -4L3.5 -2L3.5 2L0 4L-3.5 2L-3.5 -2Z" stroke="#CCCCCC" fill="none" stroke-width="1"></path></g><g transform="translate(657 572)"><path d="M0 -6L5.2 -3L5.2 3L0 6L-5.2 3L-5.2 -3Z" stroke="#CCCCCC" fill="none" stroke-width="1"></path></g><g transform="translate(89 399)"><path d="M0 -11L9.5 -5.5L9.5 5.5L0 11L-9.5 5.5L-9.5 -5.5Z" stroke="#CCCCCC" fill="none" stroke-width="1"></path></g><g transform="translate(274 77)"><path d="M0 -11L9.5 -5.5L9.5 5.5L0 11L-9.5 5.5L-9.5 -5.5Z" stroke="#CCCCCC" fill="none" stroke-width="1"></path></g><g transform="translate(513 60)"><path d="M0 -10L8.7 -5L8.7 5L0 10L-8.7 5L-8.7 -5Z" stroke="#CCCCCC" fill="none" stroke-width="1"></path></g><g transform="translate(546 159)"><path d="M0 -3L2.6 -1.5L2.6 1.5L0 3L-2.6 1.5L-2.6 -1.5Z" stroke="#CCCCCC" fill="none" stroke-width="1"></path></g><g transform="translate(382 237)"><path d="M0 -9L7.8 -4.5L7.8 4.5L0 9L-7.8 4.5L-7.8 -4.5Z" stroke="#CCCCCC" fill="none" stroke-width="1"></path></g><g transform="translate(463 359)"><path d="M0 -2L1.7 -1L1.7 1L0 2L-1.7 1L-1.7 -1Z" stroke="#CCCCCC" fill="none" stroke-width="1"></path></g><g transform="translate(554 336)"><path d="M0 -5L4.3 -2.5L4.3 2.5L0 5L-4.3 2.5L-4.3 -2.5Z" stroke="#CCCCCC" fill="none" stroke-width="1"></path></g><g transform="translate(443 417)"><path d="M0 -7L6.1 -3.5L6.1 3.5L0 7L-6.1 3.5L-6.1 -3.5Z" stroke="#CCCCCC" fill="none" stroke-width="1"></path></g><g transform="translate(531 506)"><path d="M0 -6L5.2 -3L5.2 3L0 6L-5.2 3L-5.2 -3Z" stroke="#CCCCCC" fill="none" stroke-width="1"></path></g><g transform="translate(360 253)"><path d="M0 -4L3.5 -2L3.5 2L0 4L-3.5 2L-3.5 -2Z" stroke="#CCCCCC" fill="none" stroke-width="1"></path></g><g transform="translate(546 452)"><path d="M0 -6L5.2 -3L5.2 3L0 6L-5.2 3L-5.2 -3Z" stroke="#CCCCCC" fill="none" stroke-width="1"></path></g><g transform="translate(676 488)"><path d="M0 -7L6.1 -3.5L6.1 3.5L0 7L-6.1 3.5L-6.1 -3.5Z" stroke="#CCCCCC" fill="none" stroke-width="1"></path></g><g transform="translate(583 361)"><path d="M0 -5L4.3 -2.5L4.3 2.5L0 5L-4.3 2.5L-4.3 -2.5Z" stroke="#CCCCCC" fill="none" stroke-width="1"></path></g><g transform="translate(47 332)"><path d="M0 -3L2.6 -1.5L2.6 1.5L0 3L-2.6 1.5L-2.6 -1.5Z" stroke="#CCCCCC" fill="none" stroke-width="1"></path></g><g transform="translate(190 169)"><path d="M0 -6L5.2 -3L5.2 3L0 6L-5.2 3L-5.2 -3Z" stroke="#CCCCCC" fill="none" stroke-width="1"></path></g><g transform="translate(718 492)"><path d="M0 -10L8.7 -5L8.7 5L0 10L-8.7 5L-8.7 -5Z" stroke="#CCCCCC" fill="none" stroke-width="1"></path></g><g transform="translate(694 468)"><path d="M0 -11L9.5 -5.5L9.5 5.5L0 11L-9.5 5.5L-9.5 -5.5Z" stroke="#CCCCCC" fill="none" stroke-width="1"></path></g><g transform="translate(395 77)"><path d="M0 -10L8.7 -5L8.7 5L0 10L-8.7 5L-8.7 -5Z" stroke="#CCCCCC" fill="none" stroke-width="1"></path></g><g transform="translate(543 388)"><path d="M0 -6L5.2 -3L5.2 3L0 6L-5.2 3L-5.2 -3Z" stroke="#CCCCCC" fill="none" stroke-width="1"></path></g><g transform="translate(702 192)"><path d="M0 -10L8.7 -5L8.7 5L0 10L-8.7 5L-8.7 -5Z" stroke="#CCCCCC" fill="none" stroke-width="1"></path></g><g transform="translate(97 58)"><path d="M0 -6L5.2 -3L5.2 3L0 6L-5.2 3L-5.2 -3Z" stroke="#CCCCCC" fill="none" stroke-width="1"></path></g><g transform="translate(261 216)"><path d="M0 -3L2.6 -1.5L2.6 1.5L0 3L-2.6 1.5L-2.6 -1.5Z" stroke="#CCCCCC" fill="none" stroke-width="1"></path></g><g transform="translate(716 225)"><path d="M0 -5L4.3 -2.5L4.3 2.5L0 5L-4.3 2.5L-4.3 -2.5Z" stroke="#CCCCCC" fill="none" stroke-width="1"></path></g><g transform="translate(127 157)"><path d="M0 -6L5.2 -3L5.2 3L0 6L-5.2 3L-5.2 -3Z" stroke="#CCCCCC" fill="none" stroke-width="1"></path></g><g transform="translate(626 289)"><path d="M0 -4L3.5 -2L3.5 2L0 4L-3.5 2L-3.5 -2Z" stroke="#CCCCCC" fill="none" stroke-width="1"></path></g><g transform="translate(121 207)"><path d="M0 -6L5.2 -3L5.2 3L0 6L-5.2 3L-5.2 -3Z" stroke="#CCCCCC" fill="none" stroke-width="1"></path></g><g transform="translate(548 261)"><path d="M0 -2L1.7 -1L1.7 1L0 2L-1.7 1L-1.7 -1Z" stroke="#CCCCCC" fill="none" stroke-width="1"></path></g><g transform="translate(757 373)"><path d="M0 -4L3.5 -2L3.5 2L0 4L-3.5 2L-3.5 -2Z" stroke="#CCCCCC" fill="none" stroke-width="1"></path></g><g transform="translate(262 341)"><path d="M0 -9L7.8 -4.5L7.8 4.5L0 9L-7.8 4.5L-7.8 -4.5Z" stroke="#CCCCCC" fill="none" stroke-width="1"></path></g><g transform="translate(651 349)"><path d="M0 -9L7.8 -4.5L7.8 4.5L0 9L-7.8 4.5L-7.8 -4.5Z" stroke="#CCCCCC" fill="none" stroke-width="1"></path></g><g transform="translate(179 242)"><path d="M0 -4L3.5 -2L3.5 2L0 4L-3.5 2L-3.5 -2Z" stroke="#CCCCCC" fill="none" stroke-width="1"></path></g><g transform="translate(79 341)"><path d="M0 -9L7.8 -4.5L7.8 4.5L0 9L-7.8 4.5L-7.8 -4.5Z" stroke="#CCCCCC" fill="none" stroke-width="1"></path></g><g transform="translate(95 573)"><path d="M0 -4L3.5 -2L3.5 2L0 4L-3.5 2L-3.5 -2Z" stroke="#CCCCCC" fill="none" stroke-width="1"></path></g><g transform="translate(792 179)"><path d="M0 -5L4.3 -2.5L4.3 2.5L0 5L-4.3 2.5L-4.3 -2.5Z" stroke="#CCCCCC" fill="none" stroke-width="1"></path></g><g transform="translate(619 362)"><path d="M0 -1L0.9 -0.5L0.9 0.5L0 1L-0.9 0.5L-0.9 -0.5Z" stroke="#CCCCCC" fill="none" stroke-width="1"></path></g><g transform="translate(349 366)"><path d="M0 -1L0.9 -0.5L0.9 0.5L0 1L-0.9 0.5L-0.9 -0.5Z" stroke="#CCCCCC" fill="none" stroke-width="1"></path></g><g transform="translate(593 556)"><path d="M0 -7L6.1 -3.5L6.1 3.5L0 7L-6.1 3.5L-6.1 -3.5Z" stroke="#CCCCCC" fill="none" stroke-width="1"></path></g><g transform="translate(830 106)"><path d="M0 -7L6.1 -3.5L6.1 3.5L0 7L-6.1 3.5L-6.1 -3.5Z" stroke="#CCCCCC" fill="none" stroke-width="1"></path></g><g transform="translate(650 471)"><path d="M0 -5L4.3 -2.5L4.3 2.5L0 5L-4.3 2.5L-4.3 -2.5Z" stroke="#CCCCCC" fill="none" stroke-width="1"></path></g><g transform="translate(407 331)"><path d="M0 -8L6.9 -4L6.9 4L0 8L-6.9 4L-6.9 -4Z" stroke="#CCCCCC" fill="none" stroke-width="1"></path></g><g transform="translate(88 527)"><path d="M0 -11L9.5 -5.5L9.5 5.5L0 11L-9.5 5.5L-9.5 -5.5Z" stroke="#CCCCCC" fill="none" stroke-width="1"></path></g><g transform="translate(659 186)"><path d="M0 -8L6.9 -4L6.9 4L0 8L-6.9 4L-6.9 -4Z" stroke="#CCCCCC" fill="none" stroke-width="1"></path></g><g transform="translate(396 50)"><path d="M0 -12L10.4 -6L10.4 6L0 12L-10.4 6L-10.4 -6Z" stroke="#CCCCCC" fill="none" stroke-width="1"></path></g><g transform="translate(179 137)"><path d="M0 -9L7.8 -4.5L7.8 4.5L0 9L-7.8 4.5L-7.8 -4.5Z" stroke="#CCCCCC" fill="none" stroke-width="1"></path></g><g transform="translate(165 402)"><path d="M0 -4L3.5 -2L3.5 2L0 4L-3.5 2L-3.5 -2Z" stroke="#CCCCCC" fill="none" stroke-width="1"></path></g><g transform="translate(224 388)"><path d="M0 -6L5.2 -3L5.2 3L0 6L-5.2 3L-5.2 -3Z" stroke="#CCCCCC" fill="none" stroke-width="1"></path></g><g transform="translate(178 326)"><path d="M0 -12L10.4 -6L10.4 6L0 12L-10.4 6L-10.4 -6Z" stroke="#CCCCCC" fill="none" stroke-width="1"></path></g><g transform="translate(15 14)"><path d="M0 -8L6.9 -4L6.9 4L0 8L-6.9 4L-6.9 -4Z" stroke="#CCCCCC" fill="none" stroke-width="1"></path></g><g transform="translate(162 470)"><path d="M0 -4L3.5 -2L3.5 2L0 4L-3.5 2L-3.5 -2Z" stroke="#CCCCCC" fill="none" stroke-width="1"></path></g><g transform="translate(885 456)"><path d="M0 -4L3.5 -2L3.5 2L0 4L-3.5 2L-3.5 -2Z" stroke="#CCCCCC" fill="none" stroke-width="1"></path></g><g transform="translate(608 507)"><path d="M0 -4L3.5 -2L3.5 2L0 4L-3.5 2L-3.5 -2Z" stroke="#CCCCCC" fill="none" stroke-width="1"></path></g><g transform="translate(873 581)"><path d="M0 -4L3.5 -2L3.5 2L0 4L-3.5 2L-3.5 -2Z" stroke="#CCCCCC" fill="none" stroke-width="1"></path></g><g transform="translate(340 19)"><path d="M0 -4L3.5 -2L3.5 2L0 4L-3.5 2L-3.5 -2Z" stroke="#CCCCCC" fill="none" stroke-width="1"></path></g><g transform="translate(35 538)"><path d="M0 -5L4.3 -2.5L4.3 2.5L0 5L-4.3 2.5L-4.3 -2.5Z" stroke="#CCCCCC" fill="none" stroke-width="1"></path></g><g transform="translate(19 295)"><path d="M0 -6L5.2 -3L5.2 3L0 6L-5.2 3L-5.2 -3Z" stroke="#CCCCCC" fill="none" stroke-width="1"></path></g><g transform="translate(142 192)"><path d="M0 -1L0.9 -0.5L0.9 0.5L0 1L-0.9 0.5L-0.9 -0.5Z" stroke="#CCCCCC" fill="none" stroke-width="1"></path></g><g transform="translate(577 452)"><path d="M0 -4L3.5 -2L3.5 2L0 4L-3.5 2L-3.5 -2Z" stroke="#CCCCCC" fill="none" stroke-width="1"></path></g><g transform="translate(710 88)"><path d="M0 -3L2.6 -1.5L2.6 1.5L0 3L-2.6 1.5L-2.6 -1.5Z" stroke="#CCCCCC" fill="none" stroke-width="1"></path></g><g transform="translate(205 441)"><path d="M0 -1L0.9 -0.5L0.9 0.5L0 1L-0.9 0.5L-0.9 -0.5Z" stroke="#CCCCCC" fill="none" stroke-width="1"></path></g><g transform="translate(546 483)"><path d="M0 -3L2.6 -1.5L2.6 1.5L0 3L-2.6 1.5L-2.6 -1.5Z" stroke="#CCCCCC" fill="none" stroke-width="1"></path></g><g transform="translate(849 306)"><path d="M0 -1L0.9 -0.5L0.9 0.5L0 1L-0.9 0.5L-0.9 -0.5Z" stroke="#CCCCCC" fill="none" stroke-width="1"></path></g><g transform="translate(244 425)"><path d="M0 -4L3.5 -2L3.5 2L0 4L-3.5 2L-3.5 -2Z" stroke="#CCCCCC" fill="none" stroke-width="1"></path></g></g></svg>